<?xml version="1.0" encoding="utf-8"?>
<!-- Generator: Adobe Illustrator 19.2.0, SVG Export Plug-In . SVG Version: 6.00 Build 0)  -->
<!DOCTYPE svg PUBLIC "-//W3C//DTD SVG 1.1//EN" "http://www.w3.org/Graphics/SVG/1.1/DTD/svg11.dtd">
<svg version="1.1" id="Layer_1" xmlns="http://www.w3.org/2000/svg" xmlns:xlink="http://www.w3.org/1999/xlink" x="0px" y="0px"
	 viewBox="0 0 58 58" style="enable-background:new 0 0 58 58;" xml:space="preserve">
<style type="text/css">
	.st0{fill:#FFFFFF;stroke:#BEBEBE;stroke-miterlimit:10;}
	.st1{fill:#1A9CFF;}
</style>
<g>
	<path class="st0" d="M52.7,55.7H5.3c-1.7,0-3-1.3-3-3V5.3c0-1.7,1.3-3,3-3h47.5c1.7,0,3,1.3,3,3v47.5
		C55.7,54.4,54.4,55.7,52.7,55.7z"/>
</g>
<g>
	<path class="st1" d="M20.8,25.4c0.5-0.3,1.1-0.6,1.5-0.8c0.3-0.2,0.7-0.2,1-0.3l0.2,0c0.4-0.1,0.9-0.1,1.2-0.1c0.3,0,0.6,0.1,1,0.1
		l0.3,0.1c0.5,0.1,0.9,0.2,1.5,0.4c0.2,0.1,0.3,0.1,0.5,0.2c0.4,0.1,0.7,0.2,1.2,0.4c0.7,0.3,1.3,0.5,1.9,0.7l0.4,0.1
		c0.5,0.2,0.9,0.3,1.4,0.4l0.3,0c0.5,0.1,0.9,0.2,1.4,0.2c1,0,2-0.2,2.9-0.6c0.7-0.3,1.9-0.9,3.1-1.8v-3.1l-0.4,0.3
		c-0.3,0.2-0.6,0.4-0.9,0.6c-0.3,0.2-0.6,0.4-0.9,0.6c-0.3,0.3-0.7,0.4-1.1,0.6c-0.1,0.1-0.3,0.1-0.4,0.2c-0.4,0.2-0.7,0.3-1.2,0.4
		C35.2,24,34.8,24,34.4,24c-0.5,0-1.1-0.1-1.7-0.3l-0.3-0.1c-0.8-0.2-1.5-0.5-2.6-0.9c-0.2-0.1-0.4-0.2-0.7-0.2
		c-0.3-0.1-0.5-0.2-0.7-0.3c-0.4-0.2-0.8-0.3-1.3-0.4c-0.2-0.1-0.4-0.1-0.6-0.1c-0.2,0-0.3,0-0.5-0.1c-0.4-0.1-0.8-0.1-1.2-0.1
		c-0.9,0-1.7,0.3-2.6,0.5L22,22.1c-1,0.3-2.1,0.9-3.3,1.7l-0.1,0.1v3l0.4-0.3C19.7,26.1,20.3,25.7,20.8,25.4z"/>
	<path class="st1" d="M40.5,30.4l-0.4,0.3c-0.3,0.2-0.6,0.4-0.9,0.6c-0.3,0.2-0.6,0.4-0.9,0.6c-0.3,0.3-0.7,0.4-1.1,0.6
		c-0.1,0.1-0.3,0.1-0.4,0.2c-0.4,0.2-0.7,0.3-1.2,0.4c-0.5,0.1-0.9,0.1-1.3,0.1c-0.5,0-1.1-0.1-1.7-0.3l-0.3-0.1
		c-0.8-0.2-1.5-0.5-2.6-0.9c-0.2-0.1-0.4-0.2-0.7-0.2c-0.3-0.1-0.5-0.2-0.7-0.3c-0.4-0.2-0.8-0.3-1.2-0.4c-0.2-0.1-0.4-0.1-0.6-0.1
		c-0.2,0-0.3,0-0.5-0.1c-0.4-0.1-0.8-0.1-1.2-0.1c-0.9,0-1.7,0.3-2.6,0.5L22,31.3c-1,0.3-2.1,0.9-3.3,1.7l-0.1,0.1v3l0.4-0.3
		c0.7-0.5,1.3-0.9,1.8-1.2c0.5-0.3,1.1-0.6,1.5-0.8c0.3-0.2,0.7-0.2,1.1-0.3l0.2,0c0.4-0.1,0.9-0.1,1.2-0.1c0.3,0,0.6,0.1,1,0.1
		l0.3,0.1c0.5,0.1,0.9,0.2,1.5,0.4c0.2,0.1,0.3,0.1,0.5,0.2c0.4,0.1,0.7,0.2,1.2,0.4c0.7,0.3,1.3,0.5,1.9,0.7l0.4,0.1
		c0.5,0.2,0.9,0.3,1.4,0.4l0.3,0c0.5,0.1,0.9,0.2,1.4,0.2c1,0,2-0.2,2.9-0.6c0.7-0.3,1.9-0.9,3.1-1.8V30.4z"/>
</g>
</svg>
