<?xml version="1.0" encoding="utf-8"?>
<!-- Generator: Adobe Illustrator 19.2.0, SVG Export Plug-In . SVG Version: 6.00 Build 0)  -->
<!DOCTYPE svg PUBLIC "-//W3C//DTD SVG 1.1//EN" "http://www.w3.org/Graphics/SVG/1.1/DTD/svg11.dtd">
<svg version="1.1" id="Layer_1" xmlns="http://www.w3.org/2000/svg" xmlns:xlink="http://www.w3.org/1999/xlink" x="0px" y="0px"
	 viewBox="0 0 44 44" style="enable-background:new 0 0 44 44;" xml:space="preserve">
<style type="text/css">
	.st0{fill:#FFFFFF;stroke:#BEBEBE;stroke-miterlimit:10;}
	.st1{fill:none;stroke:#1A9CFF;stroke-miterlimit:10;}
	.st2{fill:#1A9CFF;}
</style>
<g>
	<circle class="st0" cx="22" cy="22" r="19"/>
	<path class="st1" d="M14.9,31.4l-6.7-8.1c-0.8-0.6-0.8-1.8,0-2.4l6.7-8.1c0.2-0.2,0.5-0.3,0.9-0.3h15.2c0.8,0,1.5,0.7,1.5,1.5v16.1
		c0,0.8-0.7,1.5-1.5,1.5H15.7C15.4,31.7,15.1,31.6,14.9,31.4z"/>
	<polygon class="st2" points="26.9,18.4 25.7,17.3 21.9,21.1 18,17.3 16.9,18.5 20.7,22.3 16.8,26.2 17.9,27.4 21.8,23.4 25.7,27.3 
		26.8,26.1 23,22.3 	"/>
</g>
</svg>
