<?xml version="1.0" encoding="utf-8"?>
<!-- Generator: Adobe Illustrator 19.2.0, SVG Export Plug-In . SVG Version: 6.00 Build 0)  -->
<!DOCTYPE svg PUBLIC "-//W3C//DTD SVG 1.1//EN" "http://www.w3.org/Graphics/SVG/1.1/DTD/svg11.dtd">
<svg version="1.1" id="Layer_1" xmlns="http://www.w3.org/2000/svg" xmlns:xlink="http://www.w3.org/1999/xlink" x="0px" y="0px"
	 viewBox="0 0 44 44" style="enable-background:new 0 0 44 44;" xml:space="preserve">
<style type="text/css">
	.st0{fill:#FFFFFF;stroke:#BEBEBE;stroke-miterlimit:10;}
	.st1{fill:#1A9CFF;stroke:#1A9CFF;stroke-width:0.5;stroke-miterlimit:10;}
</style>
<g>
	<circle class="st0" cx="22" cy="22" r="19"/>
</g>
<g>
	<g>
		<path class="st1" d="M28.4,20.7h-1.5c-0.1-1.3-0.4-2.2-1.1-2.8C25,17.3,24.1,17,22.8,17c-0.7,0-1.4,0.1-2,0.4
			c-0.6,0.3-1.1,0.6-1.5,1.1c-0.4,0.5-0.7,1.1-0.9,1.8c-0.2,0.7-0.3,1.5-0.3,2.4c0,0.9,0.1,1.7,0.3,2.4s0.5,1.3,0.9,1.8
			c0.4,0.5,0.9,0.9,1.5,1.2c0.6,0.3,1.2,0.4,2,0.4c1,0,1.9-0.3,2.6-0.8c0.7-0.5,1.2-1.3,1.5-2.3l1.8,0.3c-0.2,0.7-0.4,1.4-0.8,1.9
			c-0.4,0.6-0.8,1-1.3,1.4s-1.1,0.6-1.8,0.8S23.4,30,22.6,30c-1.1,0-2.1-0.2-3-0.5c-0.9-0.3-1.6-0.8-2.3-1.4
			c-0.6-0.6-1.1-1.4-1.5-2.3c-0.3-0.9-0.5-1.9-0.5-3c0-1,0.2-2,0.5-2.9c0.3-0.9,0.8-1.7,1.4-2.4c0.6-0.7,1.3-1.2,2.2-1.6
			c0.8-0.4,1.8-0.6,2.8-0.6c0.4,0,0.8,0,1.2,0.1c0.4,0.1,0.8,0.1,1.2,0.3c0.4,0.1,0.7,0.3,1,0.5c0.3,0.2,0.6,0.5,0.9,0.8l0.4-1.2
			c0,0,0.1,0,0.3,0c0.1,0,0.3,0,0.4,0s0.3,0,0.4,0c0.1,0,0.2,0,0.3,0V20.7z"/>
	</g>
</g>
</svg>
