<?xml version="1.0" encoding="utf-8"?>
<!-- Generator: Adobe Illustrator 19.2.0, SVG Export Plug-In . SVG Version: 6.00 Build 0)  -->
<!DOCTYPE svg PUBLIC "-//W3C//DTD SVG 1.1//EN" "http://www.w3.org/Graphics/SVG/1.1/DTD/svg11.dtd">
<svg version="1.1" id="Layer_1" xmlns="http://www.w3.org/2000/svg" xmlns:xlink="http://www.w3.org/1999/xlink" x="0px" y="0px"
	 viewBox="0 0 58 58" style="enable-background:new 0 0 58 58;" xml:space="preserve">
<style type="text/css">
	.st0{fill:#FFFFFF;stroke:#BEBEBE;stroke-miterlimit:10;}
	.st1{fill:#1A9CFF;stroke:#1A9CFF;stroke-width:0.5;stroke-miterlimit:10;}
</style>
<g>
	<path class="st0" d="M52.7,55.7H5.3c-1.7,0-3-1.3-3-3V5.3c0-1.7,1.3-3,3-3h47.5c1.7,0,3,1.3,3,3v47.5
		C55.7,54.4,54.4,55.7,52.7,55.7z"/>
</g>
<g>
	<path class="st1" d="M31.9,28.3c1.8,0.4,3.2,1.2,4.1,2.2s1.3,2.3,1.3,3.8c0,1-0.2,1.9-0.6,2.7s-0.9,1.5-1.6,2s-1.6,1-2.6,1.3
		s-2.2,0.5-3.6,0.5c-1.3,0-2.4-0.1-3.5-0.4s-1.9-0.7-2.6-1.3s-1.3-1.2-1.6-2s-0.6-1.7-0.6-2.7c0-1.5,0.4-2.8,1.3-3.8
		s2.2-1.7,3.9-2.2c-1.4-0.4-2.6-1-3.3-2s-1.2-2.1-1.2-3.3c0-0.9,0.2-1.7,0.5-2.4s0.9-1.3,1.5-1.8s1.4-0.9,2.4-1.2s2-0.4,3.1-0.4
		c1.2,0,2.2,0.1,3.2,0.4s1.7,0.6,2.4,1.1s1.2,1.1,1.5,1.8s0.5,1.5,0.5,2.4c0,1.3-0.4,2.4-1.2,3.3S33.5,27.9,31.9,28.3z M29.1,38.9
		c0.8,0,1.6-0.1,2.2-0.3s1.3-0.5,1.8-0.9s0.9-0.9,1.2-1.5s0.4-1.2,0.4-2c0-0.6-0.1-1.1-0.3-1.7s-0.6-1-1-1.5s-1.1-0.8-1.8-1.2
		s-1.6-0.6-2.6-0.8c-1.8,0.3-3.2,0.9-4.1,1.7s-1.4,1.9-1.4,3.3c0,0.7,0.1,1.3,0.4,1.9s0.6,1.1,1.1,1.5s1.1,0.7,1.8,0.9
		S28.2,38.9,29.1,38.9z M29.1,19c-0.7,0-1.4,0.1-2,0.3s-1.1,0.4-1.6,0.8s-0.8,0.7-1,1.2s-0.4,1-0.4,1.6c0,1.2,0.4,2.1,1.3,2.9
		s2.1,1.3,3.7,1.6c1.6-0.3,2.8-0.8,3.6-1.6s1.2-1.7,1.2-2.9c0-0.7-0.1-1.3-0.4-1.8s-0.6-0.9-1.1-1.2s-1-0.5-1.5-0.7S29.7,19,29.1,19
		z"/>
</g>
</svg>
