<?xml version="1.0" encoding="utf-8"?>
<!-- Generator: Adobe Illustrator 19.2.0, SVG Export Plug-In . SVG Version: 6.00 Build 0)  -->
<!DOCTYPE svg PUBLIC "-//W3C//DTD SVG 1.1//EN" "http://www.w3.org/Graphics/SVG/1.1/DTD/svg11.dtd">
<svg version="1.1" id="Layer_1" xmlns="http://www.w3.org/2000/svg" xmlns:xlink="http://www.w3.org/1999/xlink" x="0px" y="0px"
	 viewBox="0 0 58 58" style="enable-background:new 0 0 58 58;" xml:space="preserve">
<style type="text/css">
	.st0{fill:#FFFFFF;stroke:#BEBEBE;stroke-miterlimit:10;}
	.st1{fill:#1A9CFF;stroke:#1A9CFF;stroke-width:0.5;stroke-miterlimit:10;}
</style>
<g>
	<path class="st0" d="M52.7,55.7H5.3c-1.7,0-3-1.3-3-3V5.3c0-1.7,1.3-3,3-3h47.5c1.7,0,3,1.3,3,3v47.5
		C55.7,54.4,54.4,55.7,52.7,55.7z"/>
</g>
<g>
	<path class="st1" d="M33.9,21.1c0-0.3,0-0.6,0-0.8s0-0.3,0-0.4s-0.1-0.1-0.1-0.1s-0.1,0-0.2,0h-8.5c0,0.7-0.1,1.4-0.1,2
		s-0.1,1.2-0.1,1.8s-0.1,1.3-0.1,1.8s0,1-0.1,1.4s0,0.6,0,0.6c0.7-0.6,1.5-1,2.3-1.3s1.7-0.4,2.6-0.4c1.1,0,2.1,0.2,3,0.5
		s1.7,0.8,2.3,1.5s1.1,1.4,1.5,2.3s0.5,1.9,0.5,3c0,1.3-0.2,2.5-0.7,3.4s-1.1,1.8-1.8,2.4s-1.7,1.1-2.7,1.4s-2.2,0.5-3.4,0.5
		c-1,0-2-0.1-3-0.4s-1.9-0.6-2.7-1.1l-0.4-4.5l1.8,0c0.1,1.4,0.5,2.4,1.3,3.2s1.9,1.1,3.5,1.1c0.8,0,1.5-0.1,2.1-0.4
		s1.2-0.6,1.6-1.1s0.8-1.1,1.1-1.8s0.4-1.6,0.4-2.5c0-0.8-0.1-1.6-0.4-2.3s-0.6-1.3-1-1.7s-1-0.8-1.6-1.1s-1.3-0.4-2.1-0.4
		c-1.1,0-2,0.2-2.8,0.6s-1.5,1-2.1,1.9l-1.4-0.5v-12h13.1v4.1h-1.8V21.1z"/>
</g>
</svg>
