<?xml version="1.0" encoding="utf-8"?>
<!-- Generator: Adobe Illustrator 19.2.0, SVG Export Plug-In . SVG Version: 6.00 Build 0)  -->
<!DOCTYPE svg PUBLIC "-//W3C//DTD SVG 1.1//EN" "http://www.w3.org/Graphics/SVG/1.1/DTD/svg11.dtd">
<svg version="1.1" id="Layer_1" xmlns="http://www.w3.org/2000/svg" xmlns:xlink="http://www.w3.org/1999/xlink" x="0px" y="0px"
	 viewBox="0 0 58 58" style="enable-background:new 0 0 58 58;" xml:space="preserve">
<style type="text/css">
	.st0{fill:#FFFFFF;stroke:#BEBEBE;stroke-miterlimit:10;}
	.st1{fill:#1A9CFF;stroke:#1A9CFF;stroke-width:0.5;stroke-miterlimit:10;}
</style>
<g>
	<path class="st0" d="M52.7,55.7H5.3c-1.7,0-3-1.3-3-3V5.3c0-1.7,1.3-3,3-3h47.5c1.7,0,3,1.3,3,3v47.5
		C55.7,54.4,54.4,55.7,52.7,55.7z"/>
	<g>
		<path class="st1" d="M33.5,17.5v14.2h3.8v1.8h-3.8v4c0,0.2,0,0.4,0,0.5s0.1,0.3,0.2,0.3s0.3,0.2,0.5,0.2s0.6,0.1,1.1,0.1h0.9v1.6
			c-0.6,0-1.3,0-2.1,0s-1.7,0-2.6,0c-0.5,0-0.9,0-1.2,0s-0.7,0-1,0s-0.6,0-0.9,0s-0.6,0-0.9,0v-1.6h1.1c0.5,0,0.9,0,1.2,0
			s0.5-0.1,0.7-0.1s0.2-0.2,0.3-0.3s0.1-0.3,0.1-0.4v-4.2H21c-0.1-0.4-0.1-0.8-0.2-1.2s-0.2-0.7-0.3-1.1l9.8-13.8H33.5z M22.5,31.8
			h8.4v-12h0L22.5,31.8z"/>
	</g>
</g>
</svg>
