<?xml version="1.0" encoding="utf-8"?>
<!-- Generator: Adobe Illustrator 19.2.0, SVG Export Plug-In . SVG Version: 6.00 Build 0)  -->
<!DOCTYPE svg PUBLIC "-//W3C//DTD SVG 1.1//EN" "http://www.w3.org/Graphics/SVG/1.1/DTD/svg11.dtd">
<svg version="1.1" id="Layer_1" xmlns="http://www.w3.org/2000/svg" xmlns:xlink="http://www.w3.org/1999/xlink" x="0px" y="0px"
	 viewBox="0 0 58 58" style="enable-background:new 0 0 58 58;" xml:space="preserve">
<style type="text/css">
	.st0{fill:#FFFFFF;stroke:#BEBEBE;stroke-miterlimit:10;}
	.st1{fill:#1A9CFF;stroke:#1A9CFF;stroke-width:0.5;stroke-miterlimit:10;}
</style>
<g>
	<path class="st0" d="M52.7,55.7H5.3c-1.7,0-3-1.3-3-3V5.3c0-1.7,1.3-3,3-3h47.5c1.7,0,3,1.3,3,3v47.5
		C55.7,54.4,54.4,55.7,52.7,55.7z"/>
</g>
<g>
	<g>
		<path class="st1" d="M28.3,40.7c-1.4,0-2.7-0.2-3.7-0.6s-1.9-0.9-2.6-1.6l0-3.1l2.1,0c0,0.6,0.1,1.2,0.3,1.7s0.4,0.8,0.7,1.1
			s0.7,0.5,1.2,0.7s1.1,0.2,1.9,0.2c1.1,0,2-0.2,2.8-0.6s1.4-1,1.8-1.8s0.8-1.8,1-3s0.3-2.5,0.3-4c-0.7,0.9-1.6,1.6-2.6,2
			s-2.1,0.7-3.3,0.7c-1.1,0-2.1-0.2-3-0.5s-1.6-0.8-2.3-1.5s-1.1-1.4-1.5-2.3s-0.5-1.9-0.5-3c0-1.2,0.2-2.3,0.6-3.3s0.9-1.8,1.6-2.5
			s1.5-1.2,2.5-1.6s2.1-0.5,3.3-0.5c1.3,0,2.5,0.2,3.5,0.7s1.9,1.1,2.5,2s1.2,2.1,1.6,3.5s0.5,3.1,0.5,5c0,1.8-0.1,3.4-0.4,4.9
			s-0.8,2.8-1.5,3.9s-1.6,2-2.6,2.6S29.9,40.7,28.3,40.7z M28.7,19c-0.8,0-1.5,0.1-2.1,0.4S25.5,20,25,20.5s-0.8,1.1-1,1.8
			s-0.4,1.6-0.4,2.5c0,0.8,0.1,1.5,0.3,2.2s0.5,1.3,0.9,1.8s0.9,0.9,1.5,1.2s1.3,0.4,2.1,0.4c0.6,0,1.3-0.1,1.8-0.3s1.1-0.5,1.5-0.9
			s0.9-0.8,1.2-1.4s0.6-1.2,0.8-1.9c0-1.1-0.1-2.1-0.3-2.9s-0.6-1.6-1-2.2s-1-1.1-1.7-1.4S29.6,19,28.7,19z"/>
	</g>
</g>
</svg>
