<?xml version="1.0" encoding="utf-8"?>
<!-- Generator: Adobe Illustrator 19.2.0, SVG Export Plug-In . SVG Version: 6.00 Build 0)  -->
<!DOCTYPE svg PUBLIC "-//W3C//DTD SVG 1.1//EN" "http://www.w3.org/Graphics/SVG/1.1/DTD/svg11.dtd">
<svg version="1.1" id="Layer_1" xmlns="http://www.w3.org/2000/svg" xmlns:xlink="http://www.w3.org/1999/xlink" x="0px" y="0px"
	 viewBox="0 0 58 58" style="enable-background:new 0 0 58 58;" xml:space="preserve">
<style type="text/css">
	.st0{fill:#FFFFFF;stroke:#BEBEBE;stroke-miterlimit:10;}
	.st1{fill:#1A9CFF;stroke:#1A9CFF;stroke-width:0.5;stroke-miterlimit:10;}
</style>
<g>
	<path class="st0" d="M52.7,55.7H5.3c-1.7,0-3-1.3-3-3V5.3c0-1.7,1.3-3,3-3h47.5c1.7,0,3,1.3,3,3v47.5
		C55.7,54.4,54.4,55.7,52.7,55.7z"/>
	<g>
		<g>
			<path class="st1" d="M30.8,18.2v19.4c0,0.2,0,0.4,0,0.5s0.1,0.2,0.3,0.3s0.4,0.1,0.7,0.2s0.8,0,1.3,0h1.2v1.7c-0.4,0-0.7,0-1.1,0
				s-0.7,0-1.1,0s-0.8,0-1.2,0s-0.9,0-1.4,0c-0.6,0-1.1,0-1.6,0s-0.9,0-1.3,0s-0.8,0-1.1,0s-0.8,0-1.2,0v-1.7H26
				c0.5,0,0.8,0,1.1-0.1s0.4-0.1,0.6-0.2s0.2-0.2,0.2-0.3s0-0.3,0-0.4V20.1c-0.7,0.4-1.4,0.7-2.1,0.9s-1.4,0.4-2.1,0.6v-2.2
				c0.9-0.2,1.8-0.4,2.7-0.7s1.7-0.7,2.6-1.1L30.8,18.2z"/>
		</g>
	</g>
</g>
</svg>
