<?xml version="1.0" encoding="utf-8"?>
<!-- Generator: Adobe Illustrator 19.2.0, SVG Export Plug-In . SVG Version: 6.00 Build 0)  -->
<!DOCTYPE svg PUBLIC "-//W3C//DTD SVG 1.1//EN" "http://www.w3.org/Graphics/SVG/1.1/DTD/svg11.dtd">
<svg version="1.1" id="Layer_1" xmlns="http://www.w3.org/2000/svg" xmlns:xlink="http://www.w3.org/1999/xlink" x="0px" y="0px"
	 viewBox="0 0 58 58" style="enable-background:new 0 0 58 58;" xml:space="preserve">
<style type="text/css">
	.st0{fill:#FFFFFF;stroke:#BEBEBE;stroke-miterlimit:10;}
	.st1{fill:#1A9CFF;stroke:#1A9CFF;stroke-width:0.5;stroke-miterlimit:10;}
</style>
<g>
	<path class="st0" d="M52.7,55.7H5.3c-1.7,0-3-1.3-3-3V5.3c0-1.7,1.3-3,3-3h47.5c1.7,0,3,1.3,3,3v47.5
		C55.7,54.4,54.4,55.7,52.7,55.7z"/>
</g>
<g>
	<g>
		<g>
			<path class="st1" d="M25.1,16.4c-1.9,1.6-3.3,3.5-4.2,5.7s-1.4,4.8-1.4,7.7c0,1.5,0.1,2.8,0.3,4.1s0.5,2.5,1,3.6s1,2.1,1.7,3.1
				s1.5,1.9,2.5,2.7l-1.4,0.9c-1.3-0.8-2.5-1.8-3.4-2.9s-1.6-2.3-2.2-3.5s-1-2.5-1.2-3.9s-0.4-2.6-0.4-3.9c0-1.4,0.1-2.8,0.4-4.2
				s0.7-2.7,1.2-4s1.3-2.5,2.2-3.5s2-2,3.4-2.8L25.1,16.4z"/>
			<path class="st1" d="M34.5,15.4c1.3,0.9,2.3,1.9,3.2,3s1.6,2.3,2.2,3.5s1,2.5,1.2,3.8s0.4,2.6,0.4,4c0,1.4-0.1,2.7-0.4,4.1
				s-0.7,2.7-1.2,4s-1.3,2.5-2.2,3.6s-2.1,2.1-3.4,3l-1.4-0.9c1.9-1.7,3.3-3.6,4.2-5.8s1.4-4.8,1.4-7.8c0-1.5-0.1-2.8-0.3-4.1
				s-0.6-2.5-1-3.6s-1-2.1-1.7-3.1s-1.5-1.9-2.5-2.7c0.3-0.1,0.5-0.3,0.8-0.4S34.2,15.6,34.5,15.4z"/>
		</g>
	</g>
</g>
</svg>
