<?xml version="1.0" encoding="utf-8"?>
<!-- Generator: Adobe Illustrator 19.2.0, SVG Export Plug-In . SVG Version: 6.00 Build 0)  -->
<!DOCTYPE svg PUBLIC "-//W3C//DTD SVG 1.1//EN" "http://www.w3.org/Graphics/SVG/1.1/DTD/svg11.dtd">
<svg version="1.1" id="Layer_1" xmlns="http://www.w3.org/2000/svg" xmlns:xlink="http://www.w3.org/1999/xlink" x="0px" y="0px"
	 viewBox="0 0 58 58" style="enable-background:new 0 0 58 58;" xml:space="preserve">
<style type="text/css">
	.st0{fill:#FFFFFF;stroke:#BEBEBE;stroke-miterlimit:10;}
	.st1{fill:#1A9CFF;stroke:#1A9CFF;stroke-width:0.5;stroke-miterlimit:10;}
</style>
<g>
	<path class="st0" d="M52.7,55.7H5.3c-1.7,0-3-1.3-3-3V5.3c0-1.7,1.3-3,3-3h47.5c1.7,0,3,1.3,3,3v47.5
		C55.7,54.4,54.4,55.7,52.7,55.7z"/>
</g>
<g>
	<path class="st1" d="M20.6,18.4c0.8,0,1.6,0.1,2.2,0.4s1.2,0.7,1.6,1.2s0.8,1.2,1,1.9s0.3,1.6,0.3,2.6c0,2-0.5,3.6-1.4,4.6
		s-2.2,1.6-3.9,1.6c-1.7,0-3-0.5-3.9-1.6s-1.4-2.6-1.4-4.6c0-2,0.5-3.5,1.4-4.6S18.9,18.4,20.6,18.4z M20.5,19.7c-2,0-2.9,1.7-2.9,5
		c0,1.6,0.2,2.8,0.7,3.7s1.2,1.2,2.2,1.2c1,0,1.7-0.4,2.2-1.2s0.8-2,0.8-3.7c0-1.7-0.3-2.9-0.8-3.7S21.6,19.7,20.5,19.7z M37.8,18.6
		L22,41.8h-1.9l15.8-23.2H37.8z M37.4,29.5c1.7,0,3,0.5,3.9,1.6s1.3,2.6,1.3,4.7c0,1.9-0.5,3.4-1.4,4.5s-2.2,1.6-3.9,1.6
		c-1.7,0-3-0.5-3.9-1.6s-1.4-2.6-1.4-4.6c0-2,0.5-3.5,1.4-4.6S35.7,29.5,37.4,29.5z M37.3,30.8c-1,0-1.7,0.4-2.2,1.3
		s-0.7,2.1-0.7,3.7c0,1.6,0.3,2.8,0.8,3.6s1.3,1.2,2.2,1.2s1.8-0.4,2.3-1.2s0.8-2,0.8-3.6c0-1.7-0.3-3-0.8-3.8S38.4,30.8,37.3,30.8z
		"/>
</g>
</svg>
