<?xml version="1.0" encoding="utf-8"?>
<!-- Generator: Adobe Illustrator 19.2.0, SVG Export Plug-In . SVG Version: 6.00 Build 0)  -->
<!DOCTYPE svg PUBLIC "-//W3C//DTD SVG 1.1//EN" "http://www.w3.org/Graphics/SVG/1.1/DTD/svg11.dtd">
<svg version="1.1" id="Layer_1" xmlns="http://www.w3.org/2000/svg" xmlns:xlink="http://www.w3.org/1999/xlink" x="0px" y="0px"
	 viewBox="0 0 58 58" style="enable-background:new 0 0 58 58;" xml:space="preserve">
<style type="text/css">
	.st0{fill:#FFFFFF;stroke:#BEBEBE;stroke-miterlimit:10;}
	.st1{fill:#1A9CFF;stroke:#1A9CFF;stroke-width:0.5;stroke-miterlimit:10;}
</style>
<g>
	<path class="st0" d="M52.7,55.7H5.3c-1.7,0-3-1.3-3-3V5.3c0-1.7,1.3-3,3-3h47.5c1.7,0,3,1.3,3,3v47.5
		C55.7,54.4,54.4,55.7,52.7,55.7z"/>
</g>
<g>
	<g>
		<path class="st1" d="M30,17.2c0.8,0,1.5,0.1,2.2,0.2s1.3,0.2,1.8,0.4s1,0.4,1.5,0.6s0.8,0.5,1.2,0.7l0,3.4l-1.8,0
			c0-1.2-0.4-2.2-1.2-2.8s-2-0.9-3.7-0.9c-1.1,0-2,0.2-2.7,0.6s-1.4,1-1.8,1.8s-0.8,1.8-1,3s-0.3,2.5-0.3,4c0.8-0.9,1.7-1.6,2.7-2.1
			s2.1-0.7,3.3-0.7c1.1,0,2.1,0.2,3,0.5s1.7,0.8,2.3,1.5s1.1,1.4,1.5,2.3s0.5,1.9,0.5,3c0,1.2-0.2,2.3-0.6,3.2s-0.9,1.8-1.6,2.5
			s-1.5,1.2-2.5,1.6s-2.1,0.6-3.3,0.6c-1.3,0-2.5-0.2-3.5-0.7s-1.9-1.1-2.5-2s-1.2-2.1-1.6-3.5s-0.5-3-0.5-4.9
			c0-1.8,0.2-3.4,0.5-4.9s0.8-2.8,1.5-3.9s1.6-2,2.7-2.6S28.3,17.2,30,17.2z M29.4,27.5c-0.9,0-1.7,0.2-2.5,0.6s-1.5,1-2.2,1.7
			c-0.4,0.8-0.6,1.8-0.6,2.9c0,1,0.1,1.8,0.4,2.6s0.6,1.4,1.1,2s1,1,1.7,1.2s1.4,0.4,2.2,0.4c0.8,0,1.4-0.1,2-0.4s1.1-0.6,1.6-1.1
			s0.8-1.1,1-1.8s0.4-1.5,0.4-2.4c0-0.8-0.1-1.6-0.3-2.3s-0.5-1.3-0.9-1.8s-0.9-0.9-1.5-1.2S30.3,27.5,29.4,27.5z"/>
	</g>
</g>
</svg>
