<?xml version="1.0" encoding="utf-8"?>
<!-- Generator: Adobe Illustrator 19.2.0, SVG Export Plug-In . SVG Version: 6.00 Build 0)  -->
<!DOCTYPE svg PUBLIC "-//W3C//DTD SVG 1.1//EN" "http://www.w3.org/Graphics/SVG/1.1/DTD/svg11.dtd">
<svg version="1.1" id="Layer_1" xmlns="http://www.w3.org/2000/svg" xmlns:xlink="http://www.w3.org/1999/xlink" x="0px" y="0px"
	 viewBox="0 0 58 58" style="enable-background:new 0 0 58 58;" xml:space="preserve">
<style type="text/css">
	.st0{fill:#FFFFFF;stroke:#BEBEBE;stroke-miterlimit:10;}
	.st1{fill:#1A9CFF;stroke:#1A9CFF;stroke-width:0.5;stroke-miterlimit:10;}
</style>
<g>
	<path class="st0" d="M52.7,55.7H5.3c-1.7,0-3-1.3-3-3V5.3c0-1.7,1.3-3,3-3h47.5c1.7,0,3,1.3,3,3v47.5
		C55.7,54.4,54.4,55.7,52.7,55.7z"/>
	<g>
		<path class="st1" d="M23.1,33.5c0,1.8,0.5,3.1,1.4,4s2.3,1.3,4,1.3c0.6,0,1.3-0.1,1.9-0.3s1.2-0.5,1.6-0.9s0.9-0.9,1.2-1.5
			s0.4-1.3,0.4-2.1c0-0.9-0.2-1.7-0.5-2.3s-0.8-1.1-1.4-1.5s-1.3-0.6-2-0.8s-1.6-0.2-2.4-0.2v-1.9c0.8,0,1.6-0.1,2.3-0.3
			s1.3-0.5,1.8-0.8s0.9-0.8,1.1-1.4s0.4-1.2,0.4-1.9c0-0.6-0.1-1.1-0.3-1.6s-0.5-0.9-0.9-1.3s-0.9-0.6-1.5-0.8S28.9,19,28.2,19
			c-0.8,0-1.5,0.1-2.1,0.3s-1,0.5-1.4,0.9s-0.6,0.9-0.8,1.4s-0.2,1.2-0.2,2l-2.1,0l0-4.4c0.9-0.6,1.9-1.1,3-1.4s2.3-0.5,3.6-0.5
			c1.1,0,2.2,0.1,3,0.4s1.7,0.6,2.3,1.2s1.1,1.1,1.4,1.8s0.5,1.5,0.5,2.4c0,1.3-0.4,2.4-1.1,3.3s-1.8,1.5-3.3,1.9
			c0.8,0.2,1.5,0.4,2.1,0.7s1.2,0.7,1.7,1.2s0.8,1.1,1.1,1.7s0.4,1.5,0.4,2.3c0,1-0.2,2-0.6,2.8S35,38.4,34.3,39s-1.6,1-2.6,1.3
			s-2.2,0.5-3.4,0.5c-1.1,0-2.1-0.2-3-0.5s-1.7-0.8-2.3-1.4s-1.1-1.4-1.5-2.3S21,34.7,21,33.5L23.1,33.5z"/>
	</g>
</g>
</svg>
