<?xml version="1.0" encoding="utf-8"?>
<!-- Generator: Adobe Illustrator 19.2.0, SVG Export Plug-In . SVG Version: 6.00 Build 0)  -->
<!DOCTYPE svg PUBLIC "-//W3C//DTD SVG 1.1//EN" "http://www.w3.org/Graphics/SVG/1.1/DTD/svg11.dtd">
<svg version="1.1" id="Layer_1" xmlns="http://www.w3.org/2000/svg" xmlns:xlink="http://www.w3.org/1999/xlink" x="0px" y="0px"
	 viewBox="0 0 58 58" style="enable-background:new 0 0 58 58;" xml:space="preserve">
<style type="text/css">
	.st0{fill:#F8F6F6;stroke:#BEBEBE;stroke-miterlimit:10;}
	.st1{fill:#1A9CFF;stroke:#1A9CFF;stroke-width:0.5;stroke-miterlimit:10;}
</style>
<g>
	<path class="st0" d="M52.7,55.7H5.3c-1.7,0-3-1.3-3-3V5.3c0-1.7,1.3-3,3-3h47.5c1.7,0,3,1.3,3,3v47.5
		C55.7,54.4,54.4,55.7,52.7,55.7z"/>
	<g>
		<path class="st1" d="M21.2,40.3c0-0.1,0-0.2,0-0.4s0-0.3,0-0.4c0-1.6,0.2-2.9,0.7-4.1s1.1-2.1,1.9-3s1.7-1.7,2.8-2.4
			s2.2-1.5,3.4-2.3c0.6-0.4,1-0.7,1.4-1.1s0.8-0.7,1-1.1s0.5-0.8,0.6-1.2s0.2-0.9,0.2-1.4c0-0.6-0.1-1.2-0.3-1.7s-0.5-0.9-0.9-1.3
			s-0.9-0.6-1.5-0.8S29.4,19,28.7,19c-0.9,0-1.7,0.1-2.4,0.3s-1.1,0.5-1.5,0.9s-0.6,0.9-0.8,1.5s-0.2,1.2-0.2,2l-2-0.1v-4.3
			c0.4-0.3,0.9-0.6,1.4-0.9s1.1-0.5,1.7-0.7s1.3-0.3,2-0.4s1.5-0.1,2.4-0.1c1.1,0,2.1,0.1,2.9,0.4s1.6,0.7,2.2,1.2s1,1.2,1.4,1.9
			s0.5,1.6,0.5,2.5c0,0.9-0.1,1.6-0.4,2.3s-0.7,1.2-1.3,1.8s-1.3,1.1-2.1,1.7s-1.9,1.3-3,2c-1.1,0.7-1.9,1.4-2.6,2s-1.2,1.3-1.6,1.9
			s-0.7,1.2-0.9,1.7S24,37.8,24,38.3h9.1c0.3,0,0.5-0.1,0.7-0.2s0.3-0.3,0.4-0.7s0.1-0.8,0.1-1.4s0-1.4,0-2.4h1.8v6.7H21.2z"/>
	</g>
</g>
</svg>
