<?xml version="1.0" encoding="utf-8"?>
<!-- Generator: Adobe Illustrator 19.2.0, SVG Export Plug-In . SVG Version: 6.00 Build 0)  -->
<!DOCTYPE svg PUBLIC "-//W3C//DTD SVG 1.1//EN" "http://www.w3.org/Graphics/SVG/1.1/DTD/svg11.dtd">
<svg version="1.1" id="Layer_1" xmlns="http://www.w3.org/2000/svg" xmlns:xlink="http://www.w3.org/1999/xlink" x="0px" y="0px"
	 viewBox="0 0 58 58" style="enable-background:new 0 0 58 58;" xml:space="preserve">
<style type="text/css">
	.st0{fill:#FFFFFF;stroke:#BEBEBE;stroke-miterlimit:10;}
	.st1{fill:#1A9CFF;stroke:#1A9CFF;stroke-width:0.25;stroke-miterlimit:10;}
</style>
<g>
	<path class="st0" d="M52.7,55.7H5.3c-1.7,0-3-1.3-3-3V5.3c0-1.7,1.3-3,3-3h47.5c1.7,0,3,1.3,3,3v47.5
		C55.7,54.4,54.4,55.7,52.7,55.7z"/>
</g>
<g>
	<g>
		<g>
			<path class="st1" d="M23.1,30.3c0.9-2.2,2.5-5.5,5.3-5.5c2.4,0,2.9,2.4,3.4,4.3c0.9-1.4,2.5-4.3,4.4-4.3c1.2,0,2.1,0.7,2.1,1.9
				c0,1.3-0.8,2-2,2c-0.4,0-0.8-0.2-1.2-0.4c-0.4-0.2-0.6-0.4-0.8-0.4c-0.9,0.1-2.3,2.2-2.2,2.8l1.2,5.4c0.2,0.9,0.3,1.7,1,1.7
				c0.8,0,2.3-2.8,2.6-3.6l0.8,0.3c-0.9,2.3-2.6,5.3-5.4,5.3c-3,0-3.5-3.1-4-5.4c-1.2,2-2.4,5.4-5.3,5.4c-1.3,0-1.9-1.1-1.9-2.3
				c0-1,0.9-1.9,1.9-1.9c0.7,0,1.3,0.4,1.7,0.6c0.3,0.1,0.6,0.4,0.7,0.4c0.5,0,2.2-2.1,2.6-3.3l-1.3-5.7c0-0.1-0.2-0.4-0.4-0.4
				c-1,0-2.1,2.7-2.5,3.4L23.1,30.3z"/>
		</g>
	</g>
</g>
</svg>
