<?xml version="1.0" encoding="utf-8"?>
<!-- Generator: Adobe Illustrator 19.2.0, SVG Export Plug-In . SVG Version: 6.00 Build 0)  -->
<!DOCTYPE svg PUBLIC "-//W3C//DTD SVG 1.1//EN" "http://www.w3.org/Graphics/SVG/1.1/DTD/svg11.dtd">
<svg version="1.1" id="Layer_1" xmlns="http://www.w3.org/2000/svg" xmlns:xlink="http://www.w3.org/1999/xlink" x="0px" y="0px"
	 viewBox="0 0 58 58" style="enable-background:new 0 0 58 58;" xml:space="preserve">
<style type="text/css">
	.st0{fill:#FFFFFF;stroke:#BEBEBE;stroke-miterlimit:10;}
	.st1{fill:#1A9CFF;stroke:#1A9CFF;stroke-width:0.25;stroke-miterlimit:10;}
</style>
<g>
	<path class="st0" d="M52.7,55.7H5.3c-1.7,0-3-1.3-3-3V5.3c0-1.7,1.3-3,3-3h47.5c1.7,0,3,1.3,3,3v47.5
		C55.7,54.4,54.4,55.7,52.7,55.7z"/>
</g>
<g>
	<g>
		<g>
			<path class="st1" d="M31.2,34.3l2.4-6.6c0.4-1.1,0.9-2.9,2.4-2.9c1,0,1.7,0.8,1.7,1.8c0,0.9-0.4,2-1.5,2c-0.3,0-0.7-0.3-1-0.3
				c-0.6-0.1-0.9,1-1.1,1.4l-3.7,9.6c-1.2,3-3.5,7.7-7.2,7.7c-1.4,0-2.6-1-2.6-2.4c0-1.2,0.8-2.2,2.1-2.2c1.2,0,2.2,0.8,1.9,1.9
				c-0.1,0.6,0.2,0.8,0.6,0.8c0.8,0,3-3,3.1-3.8c0.1-0.3,0.1-0.6,0.1-0.9c0-0.6-0.3-1.3-0.5-1.9l-3-8.7c-0.2-0.5-0.5-2.2-1.2-2.2
				c-0.8,0-1.9,2.2-2.2,2.8l-0.8-0.3c0.8-2,2.8-5.3,5.2-5.3c1.2,0,2.6,0.1,3.3,2.8L31.2,34.3z"/>
		</g>
	</g>
</g>
</svg>
