<?xml version="1.0" encoding="utf-8"?>
<!-- Generator: Adobe Illustrator 19.2.0, SVG Export Plug-In . SVG Version: 6.00 Build 0)  -->
<!DOCTYPE svg PUBLIC "-//W3C//DTD SVG 1.1//EN" "http://www.w3.org/Graphics/SVG/1.1/DTD/svg11.dtd">
<svg version="1.1" id="Layer_1" xmlns="http://www.w3.org/2000/svg" xmlns:xlink="http://www.w3.org/1999/xlink" x="0px" y="0px"
	 viewBox="0 0 58 58" style="enable-background:new 0 0 58 58;" xml:space="preserve">
<style type="text/css">
	.st0{fill:#FFFFFF;stroke:#BEBEBE;stroke-miterlimit:10;}
	.st1{enable-background:new    ;}
	.st2{fill:#1A9CFF;stroke:#1A9CFF;stroke-width:0.5;stroke-miterlimit:10;}
</style>
<g>
	<path class="st0" d="M52.7,55.7H5.3c-1.7,0-3-1.3-3-3V5.3c0-1.7,1.3-3,3-3h47.5c1.7,0,3,1.3,3,3v47.5
		C55.7,54.4,54.4,55.7,52.7,55.7z"/>
	<g class="st1">
		<path class="st2" d="M29,17.2c2.7,0,4.8,1,6.2,3s2.1,4.9,2.1,8.8s-0.7,6.8-2.2,8.8s-3.5,3-6.2,3s-4.8-1-6.2-3s-2.1-4.9-2.1-8.8
			c0-3.8,0.7-6.8,2.1-8.8S26.3,17.2,29,17.2z M29,19c-3.6,0-5.4,3.3-5.4,9.9c0,1.6,0.1,3.1,0.3,4.3s0.5,2.3,1,3.1s1,1.5,1.7,1.9
			s1.5,0.6,2.5,0.6c1.9,0,3.2-0.8,4.1-2.5s1.3-4.2,1.3-7.4c0-3.4-0.4-5.9-1.3-7.5S30.8,19,29,19z"/>
	</g>
</g>
</svg>
